<svg width="256" height="256" viewBox="0 0 256 256" fill="none" xmlns="http://www.w3.org/2000/svg">
<rect width="256" height="256" rx="60" fill="url(#paint0_linear_0_1)"/>
<g filter="url(#filter0_d_0_1)">
<path d="M128 48L56 88V168L128 208L200 168V88L128 48Z" fill="white" fill-opacity="0.1"/>
<path d="M128 48L56 88V168L128 208V128V48Z" fill="white" fill-opacity="0.2"/>
<path d="M128 128L200 88L128 48V128Z" fill="white" fill-opacity="0.4"/>
<path d="M56 88L128 128L200 88" stroke="white" stroke-width="8" stroke-linecap="round" stroke-linejoin="round"/>
<path d="M128 128V208" stroke="white" stroke-width="8" stroke-linecap="round" stroke-linejoin="round"/>
<path d="M164 188L192 160M192 160L164 132M192 160H148" stroke="#A855F7" stroke-width="10" stroke-linecap="round" stroke-linejoin="round"/>
<path d="M92 68L64 96M64 96L92 124M64 96H108" stroke="#A855F7" stroke-width="10" stroke-linecap="round" stroke-linejoin="round"/>
</g>
<defs>
<filter id="filter0_d_0_1" x="44" y="40" width="168" height="184" filterUnits="userSpaceOnUse" color-interpolation-filters="sRGB">
<feFlood flood-opacity="0" result="BackgroundImageFix"/>
<feColorMatrix in="SourceAlpha" type="matrix" values="0 0 0 0 0 0 0 0 0 0 0 0 0 0 0 0 0 0 127 0" result="hardAlpha"/>
<feOffset dy="4"/>
<feGaussianBlur stdDeviation="6"/>
<feComposite in2="hardAlpha" operator="out"/>
<feColorMatrix type="matrix" values="0 0 0 0 0 0 0 0 0 0 0 0 0 0 0 0 0 0 0.25 0"/>
<feBlend mode="normal" in2="BackgroundImageFix" result="effect1_dropShadow_0_1"/>
<feBlend mode="normal" in="SourceGraphic" in2="effect1_dropShadow_0_1" result="shape"/>
</filter>
<linearGradient id="paint0_linear_0_1" x1="128" y1="0" x2="128" y2="256" gradientUnits="userSpaceOnUse">
<stop stop-color="#9333EA"/>
<stop offset="1" stop-color="#7E22CE"/>
</linearGradient>
</defs>
</svg>